<svg width="13" height="7" viewBox="0 0 13 7" fill="none" xmlns="http://www.w3.org/2000/svg">
<path id="Vector" d="M12.7483 0.238103C12.8281 0.313076 12.8914 0.40214 12.9346 0.500196C12.9778 0.598252 13 0.703371 13 0.809533C13 0.915695 12.9778 1.02081 12.9346 1.11887C12.8914 1.21693 12.8281 1.30599 12.7483 1.38096L6.98336 6.81117C6.91994 6.87103 6.84461 6.91852 6.76169 6.95092C6.67876 6.98332 6.58987 7 6.50009 7C6.41032 7 6.32142 6.98332 6.2385 6.95092C6.15557 6.91852 6.08024 6.87103 6.01683 6.81117L0.251916 1.38096C-0.0839697 1.06458 -0.0839697 0.554488 0.251916 0.238103C0.587803 -0.0782827 1.12933 -0.0782827 1.46522 0.238103L6.49666 4.97743L11.535 0.231646C11.8708 -0.0782827 12.4124 -0.0782827 12.7483 0.238103Z" fill="#20C2FF"/>
</svg>
