<svg width="25" height="25" viewBox="0 0 25 25" fill="none" xmlns="http://www.w3.org/2000/svg">
<g id="Phone_white">
<g id="Phone">
<path id="Combined-Shape" fill-rule="evenodd" clip-rule="evenodd" d="M12.5 0C5.59644 0 0 5.59644 0 12.5C0 19.4036 5.59644 25 12.5 25C19.4036 25 25 19.4036 25 12.5C25 5.59644 19.4036 0 12.5 0ZM8.74362 6.25C8.78061 6.27934 8.80995 6.27934 8.83929 6.27551C8.99108 6.26276 9.12118 6.29975 9.20537 6.43878C9.22024 6.4629 9.23513 6.48703 9.25001 6.51116C9.42403 6.7932 9.59837 7.07576 9.76405 7.36481C9.884 7.57381 9.99843 7.7862 10.113 7.9988C10.197 8.1547 10.281 8.31072 10.3674 8.4656C10.4008 8.52837 10.4426 8.5875 10.4843 8.64664C10.5079 8.68003 10.5315 8.71343 10.5536 8.74749C10.6069 8.83223 10.6578 8.91926 10.7076 9.00423L10.7156 9.0179C10.8227 9.22071 10.8176 9.4248 10.6582 9.58679C10.4904 9.7584 10.31 9.92095 10.1299 10.0832C10.0664 10.1404 10.0029 10.1976 9.94007 10.2552C9.86191 10.3269 9.78261 10.3975 9.70334 10.468C9.57821 10.5794 9.45317 10.6906 9.33292 10.8062C9.17985 10.9542 9.14031 11.1391 9.24363 11.3343C9.2532 11.3522 9.26277 11.3701 9.27234 11.388C9.42212 11.6686 9.57173 11.9488 9.73599 12.2233C10.384 13.3037 11.2118 14.2221 12.2577 14.93C12.6608 15.2042 13.0804 15.4555 13.5039 15.6953C13.9031 15.9211 14.0588 15.8828 14.3687 15.5371C14.5324 15.3553 14.6928 15.1719 14.8535 14.9882C14.9757 14.8484 15.098 14.7085 15.222 14.569C15.2909 14.4912 15.3738 14.4223 15.4542 14.356C15.6175 14.2182 15.796 14.2029 15.9835 14.2973C15.9953 14.3031 16.0072 14.3087 16.0192 14.3143C16.0606 14.3337 16.1023 14.3533 16.1379 14.379C16.4705 14.6169 16.8293 14.8081 17.1877 14.999C17.3653 15.0937 17.5428 15.1882 17.717 15.2884C17.8965 15.3916 18.0729 15.4994 18.2489 15.607C18.3492 15.6683 18.4494 15.7295 18.5499 15.7897C18.6991 15.8777 18.7591 16.0065 18.7489 16.1838C18.7208 16.6826 18.6379 17.1724 18.3484 17.5933C18.2272 17.7681 18.055 17.9211 17.8815 18.0448C17.4007 18.3816 16.8637 18.5895 16.2922 18.717C15.7731 18.8331 15.2552 18.791 14.7578 18.6354C13.7973 18.3395 12.8508 18.0002 11.9796 17.4862C11.1888 17.018 10.4694 16.453 9.80359 15.8216C8.96046 15.0193 8.2079 14.1443 7.59947 13.1481C7.20278 12.5014 6.91961 11.8049 6.66323 11.0945C6.50762 10.6659 6.35455 10.2411 6.28567 9.78705C6.20659 9.27301 6.26144 8.7781 6.42598 8.29085C6.57394 7.85079 6.75889 7.42987 7.03824 7.05359C7.25763 6.76149 7.53187 6.5472 7.88647 6.45153C8.08683 6.39852 8.28845 6.35311 8.49001 6.30771C8.57459 6.28866 8.65916 6.26961 8.74362 6.25Z" fill="#283755"/>
</g>
</g>
</svg>
