<svg width="16" height="24" viewBox="0 0 16 24" fill="none" xmlns="http://www.w3.org/2000/svg">
<path d="M14.9908 0.464738C14.8301 0.317422 14.6392 0.200544 14.4291 0.120796C14.219 0.0410491 13.9938 0 13.7663 0C13.5388 0 13.3135 0.0410491 13.1034 0.120796C12.8933 0.200544 12.7024 0.317422 12.5418 0.464738L0.905605 11.1076C0.777339 11.2247 0.675578 11.3638 0.606146 11.5169C0.536715 11.67 0.500977 11.8341 0.500977 11.9998C0.500977 12.1656 0.536715 12.3297 0.606146 12.4828C0.675578 12.6359 0.777339 12.7749 0.905605 12.892L12.5418 23.5349C13.2197 24.155 14.3128 24.155 14.9908 23.5349C15.6687 22.9148 15.6687 21.9151 14.9908 21.295L4.83506 12.0062L15.0046 2.70468C15.6687 2.08459 15.6687 1.08484 14.9908 0.464738Z" fill="#20C2FF"/>
</svg>
