<svg width="40" height="41" viewBox="0 0 40 41" fill="none" xmlns="http://www.w3.org/2000/svg">
<g id="Phone_white">
<g id="Phone">
<path id="Combined-Shape" fill-rule="evenodd" clip-rule="evenodd" d="M20 0.621094C8.9543 0.621094 0 9.5754 0 20.6211C0 31.6668 8.9543 40.6211 20 40.6211C31.0457 40.6211 40 31.6668 40 20.6211C40 9.5754 31.0457 0.621094 20 0.621094ZM13.9898 10.6211C14.049 10.668 14.0959 10.668 14.1429 10.6619C14.3857 10.6415 14.5939 10.7007 14.7286 10.9231C14.7524 10.9617 14.7762 11.0003 14.8 11.0388C15.0784 11.4901 15.3574 11.9423 15.6225 12.4048C15.8144 12.7392 15.9975 13.079 16.1808 13.4192C16.3152 13.6686 16.4496 13.9182 16.5878 14.1661C16.6413 14.2665 16.7081 14.3611 16.7749 14.4557C16.8127 14.5091 16.8504 14.5626 16.8858 14.6171C16.9709 14.7526 17.0525 14.8918 17.132 15.0277L17.145 15.0497C17.3164 15.3742 17.3082 15.7008 17.0531 15.96C16.7846 16.2345 16.496 16.4946 16.2079 16.7542C16.1063 16.8458 16.0047 16.9373 15.9041 17.0294C15.7791 17.1441 15.6522 17.257 15.5253 17.3699C15.3251 17.5481 15.1251 17.7261 14.9327 17.911C14.6878 18.1478 14.6245 18.4437 14.7898 18.7559C14.8051 18.7846 14.8204 18.8132 14.8357 18.8419C15.0754 19.2907 15.3148 19.7391 15.5776 20.1784C16.6143 21.907 17.9388 23.3764 19.6123 24.5091C20.2572 24.9479 20.9287 25.3499 21.6063 25.7336C22.245 26.0948 22.494 26.0336 22.9899 25.4805C23.2519 25.1896 23.5086 24.8961 23.7656 24.6021C23.9611 24.3785 24.1569 24.1546 24.3553 23.9315C24.4655 23.807 24.5981 23.6968 24.7267 23.5907C24.9879 23.3703 25.2737 23.3458 25.5737 23.4968C25.5925 23.506 25.6116 23.515 25.6308 23.524C25.6969 23.555 25.7636 23.5863 25.8206 23.6274C26.3528 24.0081 26.9269 24.314 27.5003 24.6195C27.7845 24.771 28.0685 24.9223 28.3472 25.0826C28.6344 25.2476 28.9167 25.4202 29.1982 25.5922C29.3588 25.6903 29.519 25.7883 29.6799 25.8846C29.9186 26.0254 30.0146 26.2316 29.9982 26.5152C29.9533 27.3132 29.8207 28.0969 29.3574 28.7704C29.1635 29.05 28.888 29.2949 28.6105 29.4928C27.8411 30.0316 26.9819 30.3643 26.0676 30.5684C25.2369 30.7541 24.4083 30.6867 23.6124 30.4378C22.0756 29.9643 20.5613 29.4214 19.1674 28.599C17.9021 27.85 16.7511 26.9459 15.6857 25.9356C14.3367 24.6519 13.1326 23.2519 12.1592 21.658C11.5244 20.6233 11.0714 19.509 10.6612 18.3722C10.4122 17.6865 10.1673 17.0069 10.0571 16.2804C9.93054 15.4579 10.0183 14.6661 10.2816 13.8865C10.5183 13.1824 10.8142 12.5089 11.2612 11.9068C11.6122 11.4395 12.051 11.0966 12.6183 10.9435C12.9389 10.8587 13.2615 10.7861 13.584 10.7134C13.7193 10.6829 13.8547 10.6525 13.9898 10.6211Z" fill="#20C2FF"/>
</g>
</g>
</svg>
