<svg width="40" height="41" viewBox="0 0 40 41" fill="none" xmlns="http://www.w3.org/2000/svg">
<g id="Telegram_white">
<g id="Telegram">
<path id="Combined-Shape" fill-rule="evenodd" clip-rule="evenodd" d="M0 20.6211C0 31.6668 8.9543 40.6211 20 40.6211C31.0457 40.6211 40 31.6668 40 20.6211C40 9.5754 31.0457 0.621094 20 0.621094C8.9543 0.621094 0 9.5754 0 20.6211ZM16.3333 29.7878L16.6736 24.6896L16.6733 24.6894L25.9474 16.3203C26.3545 15.959 25.8585 15.7829 25.3182 16.1105L13.8727 23.3314L8.9289 21.7883C7.86125 21.4614 7.85358 20.7278 9.1686 20.2003L28.4336 12.7718C29.3135 12.3723 30.1627 12.9831 29.8268 14.3298L26.546 29.7903C26.3169 30.889 25.6531 31.1517 24.7333 30.6443L19.7356 26.9519L17.3333 29.2878C17.3258 29.2951 17.3182 29.3025 17.3107 29.3098C17.042 29.5713 16.8198 29.7878 16.3333 29.7878Z" fill="#20C2FF"/>
</g>
</g>
</svg>
