<svg width="40" height="41" viewBox="0 0 40 41" fill="none" xmlns="http://www.w3.org/2000/svg">
<g id="WhatsApp_white">
<g id="WhatsApp">
<path id="Combined-Shape" fill-rule="evenodd" clip-rule="evenodd" d="M0 20.6211C0 31.6668 8.9543 40.6211 20 40.6211C31.0457 40.6211 40 31.6668 40 20.6211C40 9.5754 31.0457 0.621094 20 0.621094C8.9543 0.621094 0 9.5754 0 20.6211ZM32.5518 19.8557C32.5492 26.4113 27.2162 31.7455 20.6592 31.7482H20.6543C18.6639 31.7475 16.7082 31.2481 14.9711 30.3006L8.66667 31.9544L10.3538 25.7918C9.31311 23.9882 8.76548 21.9423 8.76637 19.8463C8.76898 13.2892 14.104 7.95443 20.6591 7.95443C23.8405 7.9558 26.8265 9.19431 29.0718 11.4423C31.3172 13.6901 32.553 16.678 32.5518 19.8557Z" fill="#20C2FF"/>
<path id="Combined-Shape_2" fill-rule="evenodd" clip-rule="evenodd" d="M11.5212 29.1288L15.2623 28.1474L15.6233 28.3617C17.1409 29.2623 18.8806 29.7388 20.6543 29.7395H20.6584C26.1065 29.7395 30.5407 25.3051 30.5429 19.8548C30.5439 17.2135 29.5168 14.7301 27.6505 12.8617C25.7843 10.9933 23.3024 9.96381 20.6622 9.96289C15.2099 9.96289 10.7756 14.3968 10.7734 19.8468C10.7727 21.7145 11.2953 23.5335 12.2847 25.1072L12.5198 25.4812L11.5212 29.1288ZM26.2428 22.4159C26.4501 22.5161 26.59 22.5837 26.6498 22.6835C26.724 22.8074 26.724 23.4023 26.4765 24.0966C26.2288 24.7907 25.0417 25.4242 24.4707 25.5095C23.9588 25.586 23.3109 25.6179 22.5991 25.3917C22.1675 25.2548 21.614 25.0719 20.905 24.7658C18.1193 23.5629 16.2366 20.8629 15.8808 20.3526C15.8559 20.3168 15.8385 20.2918 15.8288 20.2788L15.8264 20.2756C15.6691 20.0658 14.6154 18.6599 14.6154 17.2048C14.6154 15.8361 15.2878 15.1186 15.5972 14.7884C15.6184 14.7657 15.6379 14.7449 15.6554 14.7259C15.9278 14.4284 16.2497 14.354 16.4478 14.354C16.6459 14.354 16.8442 14.3558 17.0174 14.3645C17.0387 14.3656 17.0609 14.3655 17.0839 14.3653C17.2571 14.3643 17.473 14.363 17.6859 14.8746C17.7679 15.0715 17.8878 15.3634 18.0142 15.6712C18.2699 16.2937 18.5524 16.9815 18.6021 17.081C18.6764 17.2298 18.7259 17.4032 18.6269 17.6017C18.612 17.6314 18.5983 17.6595 18.5851 17.6863C18.5107 17.8382 18.456 17.9499 18.3298 18.0973C18.2801 18.1553 18.2288 18.2178 18.1775 18.2803C18.0752 18.4048 17.973 18.5293 17.884 18.618C17.7352 18.7661 17.5804 18.9269 17.7537 19.2244C17.9271 19.5219 18.5234 20.495 19.4068 21.2829C20.3564 22.1299 21.1818 22.4879 21.6001 22.6694C21.6818 22.7048 21.748 22.7335 21.7965 22.7578C22.0936 22.9066 22.2669 22.8817 22.4403 22.6835C22.6136 22.4852 23.1831 21.8157 23.3812 21.5183C23.5792 21.2209 23.7774 21.2704 24.0497 21.3696C24.3222 21.4688 25.7831 22.1876 26.0803 22.3364C26.1383 22.3654 26.1925 22.3916 26.2428 22.4159Z" fill="#20C2FF"/>
</g>
</g>
</svg>
