<svg width="40" height="41" viewBox="0 0 40 41" fill="none" xmlns="http://www.w3.org/2000/svg">
<g id="Group 26">
<circle id="Ellipse 3" cx="20" cy="20.6211" r="20" fill="#20C2FF"/>
<path id="Vector" d="M20 20.6211C20.6875 20.6211 21.2763 20.3761 21.7663 19.8861C22.2554 19.3969 22.5 18.8086 22.5 18.1211C22.5 17.4336 22.2554 16.8448 21.7663 16.3548C21.2763 15.8657 20.6875 15.6211 20 15.6211C19.3125 15.6211 18.7242 15.8657 18.235 16.3548C17.745 16.8448 17.5 17.4336 17.5 18.1211C17.5 18.8086 17.745 19.3969 18.235 19.8861C18.7242 20.3761 19.3125 20.6211 20 20.6211ZM20 33.1211C16.6458 30.2669 14.1408 27.6157 12.485 25.1673C10.8283 22.7198 10 20.4544 10 18.3711C10 15.2461 11.0054 12.7565 13.0163 10.9023C15.0263 9.04818 17.3542 8.12109 20 8.12109C22.6458 8.12109 24.9737 9.04818 26.9837 10.9023C28.9946 12.7565 30 15.2461 30 18.3711C30 20.4544 29.1721 22.7198 27.5163 25.1673C25.8596 27.6157 23.3542 30.2669 20 33.1211Z" fill="#F4F4F4"/>
</g>
</svg>
