<svg width="40" height="41" viewBox="0 0 40 41" fill="none" xmlns="http://www.w3.org/2000/svg">
<g id="Mail_white">
<g id="Mail">
<path id="Combined-Shape" fill-rule="evenodd" clip-rule="evenodd" d="M20 40.6211C8.9543 40.6211 0 31.6668 0 20.6211C0 9.5754 8.9543 0.621094 20 0.621094C31.0457 0.621094 40 9.5754 40 20.6211C40 31.6668 31.0457 40.6211 20 40.6211ZM20.2787 19.4986C21.9163 19.4986 29.8787 15.0211 29.8787 15.0211L29.8915 14.2211C29.8915 13.3379 29.1747 12.6211 28.2891 12.6211H12.2683C11.3835 12.6211 10.6667 13.3379 10.6667 14.2211V14.9339C10.6667 14.9339 18.7163 19.4986 20.2787 19.4986ZM10.6795 17.4211C10.6787 17.4211 18.7163 21.6986 20.2787 21.6986C21.9915 21.6986 29.8787 17.4211 29.8787 17.4211L29.8915 27.0211C29.8915 27.9043 29.1747 28.6211 28.2891 28.6211H12.2683C11.3843 28.6211 10.6667 27.9043 10.6667 27.0211L10.6795 17.4211Z" fill="#20C2FF"/>
</g>
</g>
</svg>
