<svg width="35" height="35" viewBox="0 0 35 35" fill="none" xmlns="http://www.w3.org/2000/svg">
<g id="Group 315">
<circle id="Ellipse 5" opacity="0.08" cx="17.5" cy="17.5" r="17.5" fill="#20C2FF" fill-opacity="0.4"/>
<g id="link">
<mask id="mask0_1565_37862" style="mask-type:alpha" maskUnits="userSpaceOnUse" x="7" y="7" width="21" height="21">
<rect id="Bounding box" x="7" y="7" width="21" height="21" fill="#183FE1"/>
</mask>
<g mask="url(#mask0_1565_37862)">
<path id="link_2" d="M17.4995 23.6873C16.6436 24.5432 15.6124 24.9712 14.4059 24.9712C13.1994 24.9712 12.1682 24.5432 11.3123 23.6873C10.4564 22.8314 10.0285 21.8003 10.0285 20.5938C10.0285 19.3872 10.4564 18.3561 11.3123 17.5002L13.1685 15.644C13.3438 15.4687 13.55 15.381 13.7872 15.381C14.0244 15.381 14.2306 15.4687 14.4059 15.644C14.5812 15.8193 14.6689 16.0255 14.6689 16.2627C14.6689 16.4999 14.5812 16.7061 14.4059 16.8814L12.5498 18.7376C12.0342 19.2532 11.7764 19.8719 11.7764 20.5938C11.7764 21.3156 12.0342 21.9343 12.5498 22.4499C13.0654 22.9655 13.6841 23.2233 14.4059 23.2233C15.1278 23.2233 15.7465 22.9655 16.2621 22.4499L18.1182 20.5938C18.2935 20.4184 18.4998 20.3308 18.737 20.3308C18.9741 20.3308 19.1804 20.4184 19.3557 20.5938C19.531 20.7691 19.6186 20.9753 19.6186 21.2125C19.6186 21.4496 19.531 21.6559 19.3557 21.8312L17.4995 23.6873ZM16.2621 19.975C16.0868 20.1503 15.8805 20.238 15.6434 20.238C15.4062 20.238 15.2 20.1503 15.0247 19.975C14.8493 19.7997 14.7617 19.5935 14.7617 19.3563C14.7617 19.1191 14.8493 18.9129 15.0247 18.7376L18.737 15.0253C18.9123 14.85 19.1185 14.7623 19.3557 14.7623C19.5929 14.7623 19.7991 14.85 19.9744 15.0253C20.1497 15.2006 20.2374 15.4068 20.2374 15.644C20.2374 15.8812 20.1497 16.0874 19.9744 16.2627L16.2621 19.975ZM21.8306 19.3563C21.6553 19.5316 21.449 19.6193 21.2118 19.6193C20.9747 19.6193 20.7684 19.5316 20.5931 19.3563C20.4178 19.181 20.3302 18.9748 20.3302 18.7376C20.3302 18.5004 20.4178 18.2942 20.5931 18.1189L22.4493 16.2627C22.9649 15.7471 23.2227 15.1284 23.2227 14.4066C23.2227 13.6847 22.9649 13.066 22.4493 12.5504C21.9337 12.0348 21.315 11.777 20.5931 11.777C19.8713 11.777 19.2526 12.0348 18.737 12.5504L16.8808 14.4066C16.7055 14.5819 16.4993 14.6695 16.2621 14.6695C16.0249 14.6695 15.8187 14.5819 15.6434 14.4066C15.4681 14.2313 15.3804 14.025 15.3804 13.7878C15.3804 13.5507 15.4681 13.3444 15.6434 13.1691L17.4995 11.313C18.3554 10.4571 19.3866 10.0291 20.5931 10.0291C21.7996 10.0291 22.8308 10.4571 23.6867 11.313C24.5426 12.1689 24.9705 13.2001 24.9705 14.4066C24.9705 15.6131 24.5426 16.6443 23.6867 17.5002L21.8306 19.3563Z" fill="#20C2FF"/>
</g>
</g>
</g>
</svg>
