<svg width="57" height="57" viewBox="0 0 57 57" fill="none" xmlns="http://www.w3.org/2000/svg">
<g id="arrow_right">
<circle id="Ellipse 2" cx="28.5" cy="28.5" r="28" stroke="#20C2FF"/>
<path id="Vector" d="M25.4422 18.3873C25.5814 18.2645 25.7468 18.1671 25.9289 18.1007C26.111 18.0342 26.3063 18 26.5034 18C26.7006 18 26.8958 18.0342 27.0779 18.1007C27.26 18.1671 27.4254 18.2645 27.5646 18.3873L37.6493 27.2564C37.7605 27.3539 37.8487 27.4698 37.9089 27.5974C37.969 27.725 38 27.8617 38 27.9999C38 28.138 37.969 28.2747 37.9089 28.4023C37.8487 28.5299 37.7605 28.6458 37.6493 28.7433L27.5646 37.6124C26.9771 38.1292 26.0298 38.1292 25.4422 37.6124C24.8546 37.0957 24.8546 36.2626 25.4422 35.7458L34.2438 28.0051L25.4302 20.2539C24.8546 19.7372 24.8546 18.904 25.4422 18.3873Z" fill="#20C2FF"/>
</g>
</svg>
