<svg width="35" height="35" viewBox="0 0 35 35" fill="none" xmlns="http://www.w3.org/2000/svg">
<g id="Group 318">
<circle id="Ellipse 5" opacity="0.08" cx="17.5" cy="17.5" r="17.5" fill="#20C2FF" fill-opacity="0.4"/>
<g id="telegram">
<mask id="mask0_1565_37867" style="mask-type:alpha" maskUnits="userSpaceOnUse" x="7" y="7" width="21" height="21">
<rect id="Bounding box" x="7" y="7" width="21" height="21" fill="#183FE1"/>
</mask>
<g mask="url(#mask0_1565_37867)">
<path id="Path-3" fill-rule="evenodd" clip-rule="evenodd" d="M10.0037 17.1855C13.898 15.4778 16.5012 14.3741 17.8132 13.8326C21.5201 12.2916 22.2906 12.0208 22.7904 12C22.8945 12 23.1444 12.0208 23.311 12.1458C23.436 12.2499 23.4777 12.3957 23.4985 12.4998C23.5193 12.6039 23.5401 12.833 23.5193 13.0204C23.311 15.1238 22.4572 20.2676 21.9991 22.6209C21.8116 23.6205 21.4368 23.9537 21.0827 23.9954C20.3122 24.0579 19.7083 23.4747 18.9586 22.9958C17.7923 22.2252 17.1259 21.7462 15.9805 20.9965C14.6685 20.1219 15.5224 19.6429 16.2721 18.8724C16.4595 18.6641 19.8957 15.5611 19.9582 15.2696C19.9582 15.2279 19.979 15.103 19.8957 15.0405C19.8124 14.978 19.7083 14.9988 19.625 15.0197C19.5 15.0405 17.6257 16.29 13.9813 18.7474C13.4399 19.1223 12.9609 19.2889 12.5235 19.2889C12.0446 19.2889 11.1282 19.0181 10.441 18.789C9.608 18.5183 8.94159 18.3725 9.00406 17.9144C9.04571 17.6853 9.37892 17.4354 10.0037 17.1855Z" fill="#20C2FF"/>
</g>
</g>
</g>
</svg>
