<svg width="35" height="35" viewBox="0 0 35 35" fill="none" xmlns="http://www.w3.org/2000/svg">
<g id="Group 317">
<circle id="Ellipse 5" opacity="0.08" cx="17.5" cy="17.5" r="17.5" fill="#20C2FF" fill-opacity="0.4"/>
<g id="watsapp">
<mask id="mask0_1565_37872" style="mask-type:alpha" maskUnits="userSpaceOnUse" x="7" y="7" width="21" height="21">
<rect id="Bounding box" x="7" y="7" width="21" height="21" fill="#183FE1"/>
</mask>
<g mask="url(#mask0_1565_37872)">
<path id="Vector" fill-rule="evenodd" clip-rule="evenodd" d="M22.0609 18.7866C21.838 18.6751 20.7423 18.136 20.538 18.0615C20.3337 17.9872 20.1852 17.95 20.0366 18.1731C19.888 18.3961 19.4609 18.8982 19.3309 19.0469C19.2009 19.1957 19.0709 19.2143 18.848 19.1027C18.6251 18.9912 17.907 18.7559 17.0558 17.9965C16.3933 17.4056 15.946 16.6758 15.816 16.4526C15.686 16.2295 15.8021 16.1089 15.9137 15.9978C16.014 15.8979 16.1366 15.7375 16.248 15.6073C16.3594 15.4772 16.3966 15.3842 16.4709 15.2355C16.5451 15.0867 16.508 14.9566 16.4523 14.8451C16.3966 14.7336 15.9508 13.6365 15.7651 13.1903C15.5842 12.7557 15.4005 12.8146 15.2637 12.8077C15.1338 12.8012 14.9851 12.7999 14.8366 12.7999C14.688 12.7999 14.4465 12.8556 14.2422 13.0787C14.038 13.3018 13.4622 13.841 13.4622 14.9379C13.4622 16.035 14.2608 17.0947 14.3722 17.2434C14.4837 17.3922 15.9437 19.6433 18.1795 20.6087C18.7112 20.8383 19.1263 20.9754 19.45 21.0781C19.9839 21.2478 20.4697 21.2238 20.8537 21.1664C21.2819 21.1025 22.1723 20.6273 22.358 20.1068C22.5437 19.5861 22.5437 19.1399 22.488 19.0469C22.4323 18.954 22.2837 18.8982 22.0609 18.7866ZM17.9944 24.339H17.9914C16.6611 24.3385 15.3564 23.981 14.2181 23.3056L13.9474 23.1449L11.1416 23.881L11.8905 21.1453L11.7142 20.8648C10.9721 19.6844 10.5802 18.3202 10.5807 16.9194C10.5824 12.8319 13.9081 9.50645 17.9974 9.50645C19.9775 9.50716 21.8389 10.2793 23.2386 11.6806C24.6383 13.0819 25.4087 14.9445 25.4079 16.9254C25.4062 21.0132 22.0806 24.339 17.9944 24.339ZM24.3039 10.6158C22.6199 8.92985 20.3804 8.00096 17.9943 8C13.078 8 9.07673 12.001 9.07474 16.9188C9.0741 18.4909 9.4848 20.0253 10.2653 21.378L9 26L13.7283 24.7597C15.0312 25.4703 16.498 25.8448 17.9908 25.8453H17.9945C22.9102 25.8453 26.9119 21.8439 26.9139 16.926C26.9148 14.5427 25.9879 12.3017 24.3039 10.6158Z" fill="#20C2FF"/>
</g>
</g>
</g>
</svg>
