<svg width="11" height="18" viewBox="0 0 11 18" fill="none" xmlns="http://www.w3.org/2000/svg">
<path d="M0.840146 0.348553C0.947251 0.238067 1.07448 0.150408 1.21456 0.0905973C1.35464 0.0307868 1.50481 0 1.65648 0C1.80814 0 1.95831 0.0307868 2.09838 0.0905973C2.23846 0.150408 2.3657 0.238067 2.47281 0.348553L10.2302 8.33074C10.3158 8.41854 10.3836 8.52284 10.4299 8.63766C10.4762 8.75248 10.5 8.87557 10.5 8.99987C10.5 9.12418 10.4762 9.24726 10.4299 9.36208C10.3836 9.4769 10.3158 9.5812 10.2302 9.66901L2.47281 17.6512C2.02083 18.1163 1.29213 18.1163 0.840146 17.6512C0.388167 17.1861 0.388167 16.4363 0.840146 15.9712L7.61061 9.00462L0.830922 2.02851C0.388167 1.56344 0.388167 0.813627 0.840146 0.348553Z" fill="#2DAFE0"/>
</svg>
