<svg width="70" height="69" viewBox="0 0 70 69" fill="none" xmlns="http://www.w3.org/2000/svg">
<path d="M34.7422 1.3C53.0711 1.3 67.9422 16.1711 67.9422 34.5C67.9422 52.8289 53.0711 67.7 34.7422 67.7C16.4133 67.7 1.54219 52.8289 1.54219 34.5C1.54219 16.1711 16.4133 1.3 34.7422 1.3Z" stroke="white" stroke-opacity="0.7" stroke-width="2.6" stroke-miterlimit="10"/>
<path d="M27.581 48.5897L48.1462 36.1662C48.4329 35.9915 48.6698 35.7461 48.8342 35.4534C48.9986 35.1608 49.0849 34.8307 49.0849 34.4951C49.0849 34.1594 48.9986 33.8294 48.8342 33.5367C48.6698 33.2441 48.4329 32.9986 48.1462 32.824L27.581 20.4004C27.2862 20.2238 26.9497 20.1288 26.6061 20.1251C26.2625 20.1214 25.9241 20.2092 25.6257 20.3795C25.3272 20.5498 25.0794 20.7964 24.9076 21.094C24.7359 21.3917 24.6465 21.7297 24.6485 22.0733V46.9169C24.6465 47.2605 24.7359 47.5984 24.9076 47.8961C25.0794 48.1937 25.3272 48.4403 25.6257 48.6106C25.9241 48.7809 26.2625 48.8687 26.6061 48.865C26.9497 48.8614 27.2862 48.7663 27.581 48.5897Z" fill="white" fill-opacity="0.65"/>
</svg>
