<svg width="25" height="25" viewBox="0 0 25 25" fill="none" xmlns="http://www.w3.org/2000/svg">
<g id="Group 26">
<circle id="Ellipse 3" cx="12.5" cy="12.5" r="12.5" fill="#283755"/>
<path id="Vector" d="M12.5 12.5C12.9297 12.5 13.2977 12.3469 13.6039 12.0406C13.9096 11.7349 14.0625 11.3672 14.0625 10.9375C14.0625 10.5078 13.9096 10.1398 13.6039 9.83359C13.2977 9.52786 12.9297 9.375 12.5 9.375C12.0703 9.375 11.7026 9.52786 11.3969 9.83359C11.0906 10.1398 10.9375 10.5078 10.9375 10.9375C10.9375 11.3672 11.0906 11.7349 11.3969 12.0406C11.7026 12.3469 12.0703 12.5 12.5 12.5ZM12.5 20.3125C10.4036 18.5286 8.83802 16.8716 7.80312 15.3414C6.76771 13.8117 6.25 12.3958 6.25 11.0938C6.25 9.14062 6.87839 7.58464 8.13516 6.42578C9.39141 5.26693 10.8464 4.6875 12.5 4.6875C14.1536 4.6875 15.6086 5.26693 16.8648 6.42578C18.1216 7.58464 18.75 9.14062 18.75 11.0938C18.75 12.3958 18.2326 13.8117 17.1977 15.3414C16.1622 16.8716 14.5964 18.5286 12.5 20.3125Z" fill="#FDFDFD"/>
</g>
</svg>
