<svg width="244" height="50" viewBox="0 0 244 50" fill="none" xmlns="http://www.w3.org/2000/svg">
<g id="logo">
<path id="Vector" d="M197.385 10.2603V16.176H212.802V49.7387H220.328V16.176H235.867V10.2603H197.385ZM184.76 26.438H164.123V10.2603H156.597V49.7387H164.123V32.3537H184.76V49.7387H192.287V10.2603H184.76V26.438ZM125.52 43.2193C125.156 42.9778 124.913 42.2535 124.913 41.6498V32.3537H148.464V26.438H124.913V18.4698C124.913 17.8662 124.913 17.1418 125.52 16.5382C126.127 16.0553 126.856 15.9345 127.584 15.9345H148.949V10.0188H123.457C121.879 10.0188 120.058 10.1395 118.722 11.5883C117.873 12.5541 117.387 14.1236 117.387 15.6931V43.7022C117.387 45.2717 117.509 47.0826 118.844 48.2899C120.179 49.4972 121.636 49.4972 123.335 49.4972H149.071V43.7022H127.827C126.977 43.7022 126.006 43.7022 125.52 43.2193ZM73.9284 16.176H89.4667V49.7387H96.9931V16.176H112.531V10.2603H73.9284V16.176ZM13.8388 34.4061L20.394 18.3491C20.6368 17.7455 21.001 16.6589 21.4866 16.6589C21.9722 16.6589 22.4577 17.7455 22.5791 18.3491L29.013 34.4061H13.8388ZM21.4866 9.77734C17.9662 9.77734 16.3881 10.8639 14.9314 14.2443L0 49.6179H7.89055L11.8965 39.5974H30.9552L35.0826 49.6179H42.9732L28.0418 14.2443C26.5851 10.8639 24.8856 9.77734 21.4866 9.77734Z" fill="#283755"/>
<path id="Vector_2" d="M69.6789 37.3071L61.3027 29.0975C60.9386 28.7353 60.453 28.2524 59.7246 28.2524C58.9963 28.2524 58.5107 28.6146 58.1465 29.0975L49.649 37.3071L46.25 33.4437L56.447 23.9061C57.2968 23.1818 58.1465 22.5781 59.4818 22.5781C60.8172 22.5781 61.6669 23.061 62.5167 23.9061L72.7137 33.4437L69.6789 37.3071Z" fill="#00AEEF"/>
<path id="Vector_3" d="M239.99 0.603645C238.169 0.603645 236.591 2.05239 236.591 3.86333C236.591 5.67427 238.048 7.12302 239.99 7.12302C241.933 7.12302 243.389 5.67427 243.389 3.86333C243.389 2.05239 241.933 0.603645 239.99 0.603645ZM239.99 7.72666C237.805 7.72666 235.984 6.03645 235.984 3.86333C235.984 1.69021 237.805 0 239.99 0C242.175 0 243.996 1.69021 243.996 3.86333C243.996 6.03645 242.297 7.72666 239.99 7.72666Z" fill="white"/>
<path id="Vector_4" d="M240.842 2.77687C240.842 2.65615 240.842 2.53542 240.721 2.41469C240.721 2.29396 240.599 2.17323 240.478 2.17323C240.356 2.17323 240.235 2.0525 240.114 2.0525C239.992 2.0525 239.871 2.0525 239.628 2.0525H239.021V3.86344H239.628C239.871 3.86344 239.992 3.86344 240.114 3.86344C240.235 3.86344 240.478 3.62198 240.478 3.62198C240.599 3.50125 240.721 3.25979 240.721 3.25979C240.721 3.25979 240.842 2.8976 240.842 2.77687ZM242.299 6.15729H241.449L239.871 4.22562H239.142V6.15729H238.414V1.32812H239.749C239.992 1.32812 240.235 1.32812 240.478 1.32812C240.721 1.32812 240.842 1.44885 241.085 1.56958C241.206 1.69031 241.449 1.81104 241.449 1.93177C241.57 2.0525 241.57 2.29396 241.57 2.53542C241.57 2.8976 241.449 3.13906 241.328 3.38052C241.085 3.62198 240.842 3.74271 240.599 3.86344L242.299 6.15729Z" fill="#283755"/>
</g>
</svg>
